<svg id="Capa_1" enable-background="new 0 0 60 60" height="512" viewBox="0 0 60 60" width="512" xmlns="http://www.w3.org/2000/svg"><g fill="#00bcd4"><path d="m9.42 16.49-6.93-6.93c-1.895-1.962-1.868-5.08.061-7.009s5.047-1.956 7.009-.061l6.93 6.93c-1.962-1.895-5.08-1.868-7.009.061s-1.956 5.047-.061 7.009z"/><path d="m34.97 42.04 6.93 6.93-24.88.05c-.094-.003-.188.003-.28.02-1.228.059-2.389.573-3.26 1.44-.935.941-1.46 2.213-1.46 3.54-.011 1.326.516 2.599 1.46 3.53l-6.59-6.62-.06-.06c-1.112-.945-1.752-2.331-1.75-3.79.008-1.324.536-2.592 1.47-3.53.872-.872 2.038-1.389 3.27-1.45h.01c.082-.017.166-.024.25-.02z"/><path d="m57.21 13.15-.01.01c-1.454-1.199-3.46-1.476-5.185-.717s-2.876 2.425-2.975 4.307c-.017.089-.023.18-.02.27l-.05 24.88-6.93-6.93.04-24.89c-.002-.083.002-.167.01-.25.1-1.971 1.351-3.699 3.192-4.41s3.928-.272 5.328 1.12z"/></g><path d="m49.04 16.75c-.017.089-.023.18-.02.27l-.05 24.88-6.93-6.93.04-24.89c-.002-.083.002-.167.01-.25h.05z" fill="#3f51b5"/><path d="m16.49 9.42c-1.962-1.895-5.08-1.868-7.009.061s-1.956 5.047-.061 7.009l-6.93-6.93c-1.895-1.962-1.868-5.08.061-7.009s5.047-1.956 7.009-.061z" fill="#02a9f4"/><path d="m41.9 48.97-24.88.05c-.094-.003-.188.003-.28.02l-6.91-6.94c.082-.017.166-.024.25-.02l24.89-.04z" fill="#02a9f4"/><path d="m13.48 50.48c-.935.941-1.46 2.213-1.46 3.54-.011 1.326.516 2.599 1.46 3.53l-6.59-6.62-.06-.06c-1.112-.945-1.752-2.331-1.75-3.79.008-1.324.536-2.592 1.47-3.53.872-.872 2.038-1.389 3.27-1.45h.01l6.91 6.94c-1.228.059-2.389.573-3.26 1.44z" fill="#3f51b5"/><path d="m57.21 13.15-.01.01c-1.332-1.097-3.135-1.429-4.77-.88-.465.151-.904.374-1.3.66-1.244.882-2.014 2.287-2.09 3.81l-1.92-1.92-4.98-5h-.05c.081-1.529.859-2.937 2.11-3.82.836-.609 1.845-.935 2.88-.93 1.324-.002 2.594.523 3.53 1.46z" fill="#0377bc"/><path d="m56.973 12.945c-1.281-.939-2.933-1.21-4.447-.728.615.188 1.186.497 1.68.91 1.144.946 1.804 2.355 1.8 3.84l-.06 36.94c-.004.303-.037.604-.1.9-.01.092-.031.182-.06.27-.048.204-.112.405-.19.6-.029.088-.062.175-.1.26-.109.262-.243.513-.4.75-.022.021-.043.045-.06.07-.15.214-.317.414-.5.6-.06.06-.12.12-.19.18-.148.147-.309.281-.48.4l-.22.16c-.213.132-.434.252-.66.36l-.12.06h-.01c-.267.115-.545.202-.83.26-.079.018-.159.032-.24.04-.228.038-.459.062-.69.07-.05 0-.1.02-.15.02h3c2.748-.003 5-2.251 5-5l.06-36.94c.003-1.589-.752-3.083-2.033-4.022z" fill="#00838f"/><path d="m54.194 13.121c-.489-.409-1.055-.714-1.663-.903-1.94.607-3.392 2.352-3.497 4.493-.017.089-.023.18-.02.27l-.05 24.88-32.48-32.48c-1.962-1.895-5.08-1.868-7.009.061s-1.956 5.047-.061 7.009l25.55 25.55 6.93 6.93-24.88.05c-.094-.003-.188.003-.28.02-1.228.059-2.389.573-3.26 1.44-.935.941-1.46 2.214-1.46 3.54-.011 1.326.516 2.599 1.46 3.53l.08.08c.927.884 2.159 1.375 3.44 1.37l33.933-.06h.002.005l.001-.001c2.746-.004 4.999-2.252 4.999-4.999l.06-36.94c.004-1.484-.656-2.893-1.8-3.84z" fill="#00bcd4"/><path d="m9.687 41.105c-2.416.169-4.494 1.773-5.268 4.068s-.093 4.83 1.728 6.427c6.209 6.237 6.557 6.6 6.8 6.794 1.102 1.014 2.546 1.575 4.044 1.571 39.6 0 37.03.03 37.289-.055 3.167-.2 5.646-2.803 5.69-5.976v-36.934c.012-1.675-.686-3.278-1.922-4.409-.179-.2-5.865-5.964-6.786-6.7l.056-.057c-1.723-1.704-4.3-2.21-6.54-1.283s-3.706 3.105-3.721 5.529v22.477l-30.793-30.774c-1.72-1.701-4.293-2.205-6.527-1.278s-3.696 3.104-3.707 5.523c-.009 1.59.622 3.118 1.75 4.239l30.774 30.793c-24.044 0-22.548-.026-22.867.045zm-2.219 9c-1.179-1.014-1.659-2.622-1.229-4.117s1.691-2.602 3.229-2.834l5.278 5.3c-2.136.885-3.577 2.914-3.711 5.222-3.26-3.271-3.497-3.513-3.567-3.576zm50.5 3.833c-.048 1.029-.458 2.007-1.158 2.762-.723.756-1.716 1.197-2.762 1.226-1.774.065 8.007.046-37.056.046-1.053.009-2.066-.403-2.813-1.145s-1.167-1.752-1.165-2.805c-.003-2.102 1.626-3.844 3.723-3.982 3.093 0-10.188-.04 25.16-.04.405 0 .769-.243.924-.617s.07-.804-.216-1.09l-32.482-32.5c-1.562-1.562-1.562-4.095 0-5.657s4.095-1.562 5.657 0l32.5 32.481c.286.295.724.384 1.103.226s.623-.532.614-.943c0-17.4-.005-24.365.009-24.971.017-.078.026-.157.024-.237.176-2.076 1.91-3.673 3.993-3.678 1.053 0 2.062.422 2.803 1.17s1.151 1.763 1.14 2.816zm-14.908-41.763 4.937 4.944v22.371l-4.933-4.932zm6.837-4.928c.012.011 1.92 1.917 3.783 3.787-2.311.131-4.344 1.572-5.233 3.71l-5.3-5.311c.24-1.476 1.285-2.693 2.708-3.154 1.422-.46 2.982-.087 4.042.968zm-47.867-1.215c.008-1.612.981-3.062 2.47-3.681s3.203-.283 4.35.849l3.8 3.8c-3.066.134-5.521 2.591-5.653 5.657l-3.8-3.8c-.753-.747-1.173-1.765-1.167-2.825zm32.525 37.028 4.932 4.94h-22.38l-4.91-4.94z"/></svg>